2014001_C3_02_grf
version=1
nRows=34
nColumns=19
inDegrees=no
endheader
time	ground_force_1_vx	ground_force_1_vy	ground_force_1_vz	ground_force_1_px	ground_force_1_py	ground_force_1_pz	ground_force_1_mx	ground_force_1_my	ground_force_1_mz	ground_force_2_vx	ground_force_2_vy	ground_force_2_vz	ground_force_2_px	ground_force_2_py	ground_force_2_pz	ground_force_2_mx	ground_force_2_my	ground_force_2_mz
      0.93500000	     31.51380792	    549.89990592	     29.32551783	      0.14008500	     -0.00200000	      0.20033407	      0.00000000	      2.12704914	      0.00000000	      0.00000000	      0.00000000	      0.00000000	      0.00000000	      0.00000000	      0.00000000	      0.00000000	      0.00000000	      0.00000000
      0.93600000	     31.48950711	    549.37124252	     29.14152294	      0.13991315	     -0.00200000	      0.19986373	      0.00000000	      2.11574805	      0.00000000	      0.00000000	      0.00000000	      0.00000000	      0.00000000	      0.00000000	      0.00000000	      0.00000000	      0.00000000	      0.00000000
      0.93700000	     31.46502301	    548.87363315	     28.95634808	      0.13974354	     -0.00200000	      0.19939869	      0.00000000	      2.10426512	      0.00000000	      0.00000000	      0.00000000	      0.00000000	      0.00000000	      0.00000000	      0.00000000	      0.00000000	      0.00000000	      0.00000000
      0.93800000	     31.44031763	    548.40075970	     28.77007239	      0.13957578	     -0.00200000	      0.19893802	     -0.00000000	      2.09263525	      0.00000000	      0.00000000	      0.00000000	      0.00000000	      0.00000000	      0.00000000	      0.00000000	      0.00000000	      0.00000000	      0.00000000
      0.93900000	     31.41526356	    547.95876145	     28.58222649	      0.13941042	     -0.00200000	      0.19848293	      0.00000000	      2.08082160	      0.00000000	      0.00000000	      0.00000000	      0.00000000	      0.00000000	      0.00000000	      0.00000000	      0.00000000	      0.00000000	      0.00000000
      0.94000000	     31.38989210	    547.54114151	     28.39297429	      0.13924700	     -0.00200000	      0.19803240	      0.00000000	      2.06886092	      0.00000000	      0.00000000	      0.00000000	      0.00000000	      0.00000000	      0.00000000	      0.00000000	      0.00000000	      0.00000000	      0.00000000
      0.94100000	     31.36409260	    547.15394974	     28.20179332	      0.13908609	     -0.00200000	      0.19758772	      0.00000000	      2.05671830	      0.00000000	      0.00000000	      0.00000000	      0.00000000	      0.00000000	      0.00000000	      0.00000000	      0.00000000	      0.00000000	      0.00000000
      0.94200000	     31.33793995	    546.79077864	     28.00894156	      0.13892722	     -0.00200000	      0.19714779	      0.00000000	      2.04443086	     -0.00000000	      0.00000000	      0.00000000	      0.00000000	      0.00000000	      0.00000000	      0.00000000	      0.00000000	      0.00000000	      0.00000000
      0.94300000	     31.31133914	    546.45738006	     27.81385090	      0.13877093	     -0.00200000	      0.19671388	      0.00000000	      2.03196308	      0.00000000	      0.00000000	      0.00000000	      0.00000000	      0.00000000	      0.00000000	      0.00000000	      0.00000000	      0.00000000	      0.00000000
      0.94400000	     31.28438964	    546.14752531	     27.61685103	      0.13861672	     -0.00200000	      0.19628484	      0.00000000	      2.01935192	      0.00000000	      0.00000000	      0.00000000	      0.00000000	      0.00000000	      0.00000000	      0.00000000	      0.00000000	      0.00000000	      0.00000000
      0.94500000	     31.25702217	    545.86672783	     27.41733287	      0.13846512	     -0.00200000	      0.19586198	      0.00000000	      2.00656085	      0.00000000	      0.00000000	      0.00000000	      0.00000000	      0.00000000	      0.00000000	      0.00000000	      0.00000000	      0.00000000	      0.00000000
      0.94600000	     31.22934848	    545.60893774	     27.21570060	      0.13831562	     -0.00200000	      0.19544409	      0.00000000	      1.99362690	      0.00000000	      0.00000000	      0.00000000	      0.00000000	      0.00000000	      0.00000000	      0.00000000	      0.00000000	      0.00000000	      0.00000000
      0.94700000	     31.20135292	    545.37948966	     27.01130509	      0.13816873	     -0.00200000	      0.19503248	      0.00000000	      1.98051652	      0.00000000	      0.00000000	      0.00000000	      0.00000000	      0.00000000	      0.00000000	      0.00000000	      0.00000000	      0.00000000	      0.00000000
      0.94800000	     31.17315173	    545.17239332	     26.80461109	      0.13802394	     -0.00200000	      0.19462594	      0.00000000	      1.96726754	      0.00000000	      0.00000000	      0.00000000	      0.00000000	      0.00000000	      0.00000000	      0.00000000	      0.00000000	      0.00000000	      0.00000000
      0.94900000	     31.14477620	    544.99289393	     26.59495175	      0.13788177	     -0.00200000	      0.19422576	      0.00000000	      1.95384925	      0.00000000	      0.00000000	      0.00000000	      0.00000000	      0.00000000	      0.00000000	      0.00000000	      0.00000000	      0.00000000	      0.00000000
      0.95000000	     31.11633137	    544.83515024	     26.38285980	      0.13774169	     -0.00200000	      0.19383073	      0.00000000	      1.94029889	      0.00000000	      0.00000000	      0.00000000	      0.00000000	      0.00000000	      0.00000000	      0.00000000	      0.00000000	      0.00000000	      0.00000000
      0.95100000	     31.08790219	    544.70410943	     26.16766002	      0.13760420	     -0.00200000	      0.19344215	      0.00000000	      1.92658950	      0.00000000	      0.00000000	      0.00000000	      0.00000000	      0.00000000	      0.00000000	      0.00000000	      0.00000000	      0.00000000	      0.00000000
      0.95200000	     31.05957136	    544.59404945	     25.94992891	      0.13746877	     -0.00200000	      0.19305875	      0.00000000	      1.91275913	      0.00000000	      0.00000000	      0.00000000	      0.00000000	      0.00000000	      0.00000000	      0.00000000	      0.00000000	      0.00000000	      0.00000000
      0.95300000	     31.03148080	    544.50979829	     25.72897822	      0.13733590	     -0.00200000	      0.19268184	      0.00000000	      1.89879077	      0.00000000	      0.00000000	      0.00000000	      0.00000000	      0.00000000	      0.00000000	      0.00000000	      0.00000000	      0.00000000	      0.00000000
      0.95400000	     31.00368530	    544.44563389	     25.50541051	      0.13720502	     -0.00200000	      0.19231011	      0.00000000	      1.88472484	      0.00000000	      0.00000000	      0.00000000	      0.00000000	      0.00000000	      0.00000000	      0.00000000	      0.00000000	      0.00000000	      0.00000000
      0.95500000	     30.97638488	    544.40605640	     25.27854685	      0.13707658	     -0.00200000	      0.19194483	      0.00000000	      1.87055082	      0.00000000	      0.00000000	      0.00000000	      0.00000000	      0.00000000	      0.00000000	      0.00000000	      0.00000000	      0.00000000	      0.00000000
      0.95600000	     30.94959185	    544.38573122	     25.04903637	      0.13695007	     -0.00200000	      0.19158470	      0.00000000	      1.85630306	      0.00000000	      0.00000000	      0.00000000	      0.00000000	      0.00000000	      0.00000000	      0.00000000	      0.00000000	      0.00000000	      0.00000000
      0.95700000	     30.92356101	    544.38889027	     24.81622528	      0.13682593	     -0.00200000	      0.19123096	      0.00000000	      1.84197782	      0.00000000	      0.00000000	      0.00000000	      0.00000000	      0.00000000	      0.00000000	      0.00000000	      0.00000000	      0.00000000	      0.00000000
      0.95800000	     30.89824542	    544.41034794	     24.58077669	      0.13670363	     -0.00200000	      0.19088228	      0.00000000	      1.82760433	     -0.00000000	      0.00000000	      0.00000000	      0.00000000	      0.00000000	      0.00000000	      0.00000000	      0.00000000	      0.00000000	      0.00000000
      0.95900000	     30.87394238	    544.45415735	     24.34205357	      0.13658358	     -0.00200000	      0.19053988	      0.00000000	      1.81318571	     -0.00000000	      0.00000000	      0.00000000	      0.00000000	      0.00000000	      0.00000000	      0.00000000	      0.00000000	      0.00000000	      0.00000000
      0.96000000	     30.85053116	    544.51537132	     24.10073020	      0.13646530	     -0.00200000	      0.19020245	      0.00000000	      1.79874267	      0.00000000	      0.00000000	      0.00000000	      0.00000000	      0.00000000	      0.00000000	      0.00000000	      0.00000000	      0.00000000	      0.00000000
      0.96100000	     30.82832806	    544.59786415	     23.85618910	      0.13634918	     -0.00200000	      0.18987119	      0.00000000	      1.78428190	      0.00000000	      0.00000000	      0.00000000	      0.00000000	      0.00000000	      0.00000000	      0.00000000	      0.00000000	      0.00000000	      0.00000000
      0.96200000	     30.80715761	    544.69686747	     23.60909991	      0.13623472	     -0.00200000	      0.18954481	      0.00000000	      1.76981644	      0.00000000	      0.00000000	      0.00000000	      0.00000000	      0.00000000	      0.00000000	      0.00000000	      0.00000000	      0.00000000	      0.00000000
      0.96300000	     30.78735396	    544.81607676	     23.35886098	      0.13612231	     -0.00200000	      0.18922449	      0.00000000	      1.75535605	     -0.00000000	      0.00000000	      0.00000000	      0.00000000	      0.00000000	      0.00000000	      0.00000000	      0.00000000	      0.00000000	      0.00000000
      0.96400000	     30.76869920	    544.95096207	     23.10613170	      0.13601148	     -0.00200000	      0.18890895	      0.00000000	      1.74090846	      0.00000000	      0.00000000	      0.00000000	      0.00000000	      0.00000000	      0.00000000	      0.00000000	      0.00000000	      0.00000000	      0.00000000
      0.96500000	     30.75154424	    545.10492086	     22.85034209	      0.13590256	     -0.00200000	      0.18859935	      0.00000000	      1.72648513	      0.00000000	      0.00000000	      0.00000000	      0.00000000	      0.00000000	      0.00000000	      0.00000000	      0.00000000	      0.00000000	      0.00000000
      0.96600000	     30.73564097	    545.27378082	     22.59215526	      0.13579514	     -0.00200000	      0.18829446	      0.00000000	      1.71208841	      0.00000000	      0.00000000	      0.00000000	      0.00000000	      0.00000000	      0.00000000	      0.00000000	      0.00000000	      0.00000000	      0.00000000
      0.96700000	     30.72135486	    545.46079040	     22.33103570	      0.13568955	     -0.00200000	      0.18799538	      0.00000000	      1.69773435	      0.00000000	      0.00000000	      0.00000000	      0.00000000	      0.00000000	      0.00000000	      0.00000000	      0.00000000	      0.00000000	      0.00000000
      0.96800000	     30.70839420	    545.66186666	     22.06761576	      0.13558537	     -0.00200000	      0.18770091	      0.00000000	      1.68342193	      0.00000000	      0.00000000	      0.00000000	      0.00000000	      0.00000000	      0.00000000	      0.00000000	      0.00000000	      0.00000000	      0.00000000
